ffmpeg started on 2016-11-28 at 08:24:48
Report written to "Output/NVENCh264/results/ffmpeg/sintelllhp14000k.log"
Command line:
Tools/ffmpeg/ffmpeg -benchmark -y -i Input/y4m/sintel.y4m -c:v h264_nvenc -preset llhp -b:v 14000k -an Output/NVENCh264/encoded/sintelllhp14000k.mkv
ffmpeg version N-82227-gdb23fde Copyright (c) 2000-2016 the FFmpeg developers
  built with gcc 5.4.0 (Ubuntu 5.4.0-6ubuntu1~16.04.2) 20160609
  configuration: --prefix=/home/jaroslav/ffmpeg_build --pkg-config-flags=--static --extra-cflags=-I/home/jaroslav/ffmpeg_build/include --extra-ldflags=-L/home/jaroslav/ffmpeg_build/lib --bindir=/home/jaroslav/bin --enable-gpl --enable-libass --enable-libfdk-aac --enable-libfreetype --enable-libmp3lame --enable-libopus --enable-libtheora --enable-libvorbis --enable-libvpx --enable-libx264 --enable-libx265 --enable-nvenc --enable-libmfx --enable-libxvid --enable-libgsm --enable-libopencore-amrnb --enable-version3 --enable-nonfree
  libavutil      55. 35.100 / 55. 35.100
  libavcodec     57. 66.101 / 57. 66.101
  libavformat    57. 57.100 / 57. 57.100
  libavdevice    57.  2.100 / 57.  2.100
  libavfilter     6. 66.100 /  6. 66.100
  libswscale      4.  3.100 /  4.  3.100
  libswresample   2.  4.100 /  2.  4.100
  libpostproc    54.  2.100 / 54.  2.100
Input #0, yuv4mpegpipe, from 'Input/y4m/sintel.y4m':
  Duration: 00:00:20.83, start: 0.000000, bitrate: 2057307 kb/s
    Stream #0:0: Video: rawvideo (I420 / 0x30323449), yuv420p(progressive), 4096x1744, SAR 1:1 DAR 256:109, 24 fps, 24 tbr, 24 tbn, 24 tbc
[h264_nvenc @ 0x36801c0] The variable bitrate rate-control requires the 'qmin' and/or 'qmax' option set.
Output #0, matroska, to 'Output/NVENCh264/encoded/sintelllhp14000k.mkv':
  Metadata:
    encoder         : Lavf57.57.100
    Stream #0:0: Video: h264 (h264_nvenc) (Main) (H264 / 0x34363248), yuv420p, 4096x1744 [SAR 1:1 DAR 256:109], q=-1--1, 14000 kb/s, 24 fps, 1k tbn, 24 tbc
    Metadata:
      encoder         : Lavc57.66.101 h264_nvenc
    Side data:
      cpb: bitrate max/min/avg: 0/0/14000000 buffer size: 28000000 vbv_delay: -1
Stream mapping:
  Stream #0:0 -> #0:0 (rawvideo (native) -> h264 (h264_nvenc))
Press [q] to stop, [?] for help
frame=    3 fps=1.8 q=0.0 size=       0kB time=00:00:00.00 bitrate=N/A speed=   0x    frame=   24 fps= 11 q=0.0 size=       0kB time=00:00:00.00 bitrate=N/A speed=   0x    frame=   45 fps= 16 q=32.0 size=       1kB time=00:00:00.58 bitrate=  10.2kbits/s speed=0.214x    frame=   66 fps= 20 q=30.0 size=       1kB time=00:00:01.45 bitrate=   4.1kbits/s speed=0.449x    frame=   87 fps= 23 q=30.0 size=       1kB time=00:00:02.33 bitrate=   2.6kbits/s speed=0.621x    frame=  107 fps= 25 q=25.0 size=    5157kB time=00:00:03.16 bitrate=13336.5kbits/s speed=0.743x    frame=  128 fps= 27 q=27.0 size=    5157kB time=00:00:04.04 bitrate=10450.2kbits/s speed=0.847x    frame=  149 fps= 28 q=27.0 size=    8118kB time=00:00:04.91 bitrate=13523.0kbits/s speed=0.929x    frame=  170 fps= 29 q=28.0 size=    8118kB time=00:00:05.79 bitrate=11480.4kbits/s speed=0.998x    frame=  191 fps= 30 q=26.0 size=    8118kB time=00:00:06.66 bitrate=9973.9kbits/s speed=1.06x    frame=  195 fps= 23 q=25.0 size=    8118kB time=00:00:06.83 bitrate=9731.6kbits/s speed=0.819x    frame=  196 fps= 17 q=26.0 size=    8118kB time=00:00:06.87 bitrate=9672.2kbits/s speed=0.603x    frame=  217 fps= 18 q=28.0 size=   13249kB time=00:00:07.75 bitrate=14003.0kbits/s speed=0.65x    frame=  237 fps= 19 q=27.0 size=   13249kB time=00:00:08.58 bitrate=12644.1kbits/s speed=0.691x    frame=  258 fps= 20 q=28.0 size=   13249kB time=00:00:09.45 bitrate=11474.5kbits/s speed=0.731x    frame=  279 fps= 21 q=24.0 size=   13249kB time=00:00:10.33 bitrate=10502.9kbits/s speed=0.768x    frame=  299 fps= 21 q=27.0 size=   18820kB time=00:00:11.16 bitrate=13804.9kbits/s speed= 0.8x    frame=  320 fps= 22 q=27.0 size=   18820kB time=00:00:12.04 bitrate=12801.9kbits/s speed=0.832x    frame=  341 fps= 23 q=21.0 size=   18820kB time=00:00:12.91 bitrate=11934.8kbits/s speed=0.862x    frame=  362 fps= 23 q=22.0 size=   18820kB time=00:00:13.79 bitrate=11177.7kbits/s speed=0.89x    frame=  382 fps= 24 q=22.0 size=   24005kB time=00:00:14.62 bitrate=13444.9kbits/s speed=0.914x    frame=  403 fps= 24 q=22.0 size=   24005kB time=00:00:15.50 bitrate=12686.0kbits/s speed=0.939x    frame=  424 fps= 25 q=23.0 size=   24005kB time=00:00:16.37 bitrate=12008.1kbits/s speed=0.962x    frame=  444 fps= 25 q=26.0 size=   29162kB time=00:00:17.20 bitrate=13882.0kbits/s speed=0.982x    frame=  465 fps= 26 q=27.0 size=   29836kB time=00:00:18.08 bitrate=13515.5kbits/s speed=   1x    frame=  486 fps= 26 q=26.0 size=   29836kB time=00:00:18.95 bitrate=12891.8kbits/s speed=1.02x    frame=  500 fps= 26 q=26.0 Lsize=   35805kB time=00:00:20.79 bitrate=14106.6kbits/s speed= 1.1x    
video:35800kB audio:0kB subtitle:0kB other streams:0kB global headers:0kB muxing overhead: 0.013773%
bench: utime=0.932s
bench: maxrss=1197584kB
